<svg xmlns="http://www.w3.org/2000/svg" xmlns:xlink="http://www.w3.org/1999/xlink" viewBox="0 0 24 24"><defs><style>.cls-1{fill:#fff;}.cls-1,.cls-5{fill-rule:evenodd;}.cls-2{opacity:0.8;}.cls-3{fill:none;}.cls-4{mask:url(#mask);}.cls-5{fill:#FFFFFF;}</style><mask id="mask" x="0" y="0" width="24" height="24" maskUnits="userSpaceOnUse"><g id="mask-58"><polygon id="path-57" class="cls-1" points="19 6.41 17.59 5 12 10.59 6.41 5 5 6.41 10.59 12 5 17.59 6.41 19 12 13.41 17.59 19 19 17.59 13.41 12 19 6.41"/></g></mask></defs><g id="Layer_2" data-name="Layer 2"><g id="Layer_1-2" data-name="Layer 1"><g id="Skin_Icons_Material_Close" data-name="Skin/Icons/Material/Close"><g id="Skin_buttons_States_Idle" data-name="Skin/buttons/States/Idle" class="cls-2"><path id="bg" class="cls-3" d="M4,0H20a4,4,0,0,1,4,4V20a4,4,0,0,1-4,4H4a4,4,0,0,1-4-4V4A4,4,0,0,1,4,0Z"/></g><g id="Skin_colors_Gray" data-name="Skin/colors/Gray"><g class="cls-4"><g id="Skin_colors_Gray---Dark-Light" data-name="Skin/colors/Gray---Dark-Light"><g id="white"><polygon class="cls-5" points="0 0 24 0 24 24 0 24 0 0"/></g></g></g></g></g></g></g></svg>