<?xml version="1.0" encoding="UTF-8"?>
<svg width="76px" height="76px" viewBox="0 0 76 76" version="1.1" xmlns="http://www.w3.org/2000/svg" xmlns:xlink="http://www.w3.org/1999/xlink">
    <title>Group</title>
    <defs>
        <rect id="path-1" x="0" y="0" width="56" height="56" rx="16"></rect>
        <filter x="-27.7%" y="-25.9%" width="155.4%" height="155.4%" filterUnits="objectBoundingBox" id="filter-3">
            <feMorphology radius="0.5" operator="erode" in="SourceAlpha" result="shadowSpreadOuter1"></feMorphology>
            <feOffset dx="0" dy="2" in="shadowSpreadOuter1" result="shadowOffsetOuter1"></feOffset>
            <feGaussianBlur stdDeviation="2" in="shadowOffsetOuter1" result="shadowBlurOuter1"></feGaussianBlur>
            <feColorMatrix values="0 0 0 0 0   0 0 0 0 0   0 0 0 0 0  0 0 0 0.2 0" type="matrix" in="shadowBlurOuter1" result="shadowMatrixOuter1"></feColorMatrix>
            <feOffset dx="0" dy="1" in="SourceAlpha" result="shadowOffsetOuter2"></feOffset>
            <feGaussianBlur stdDeviation="5" in="shadowOffsetOuter2" result="shadowBlurOuter2"></feGaussianBlur>
            <feColorMatrix values="0 0 0 0 0   0 0 0 0 0   0 0 0 0 0  0 0 0 0.12 0" type="matrix" in="shadowBlurOuter2" result="shadowMatrixOuter2"></feColorMatrix>
            <feOffset dx="0" dy="4" in="SourceAlpha" result="shadowOffsetOuter3"></feOffset>
            <feGaussianBlur stdDeviation="2.5" in="shadowOffsetOuter3" result="shadowBlurOuter3"></feGaussianBlur>
            <feColorMatrix values="0 0 0 0 0   0 0 0 0 0   0 0 0 0 0  0 0 0 0.14 0" type="matrix" in="shadowBlurOuter3" result="shadowMatrixOuter3"></feColorMatrix>
            <feMerge>
                <feMergeNode in="shadowMatrixOuter1"></feMergeNode>
                <feMergeNode in="shadowMatrixOuter2"></feMergeNode>
                <feMergeNode in="shadowMatrixOuter3"></feMergeNode>
            </feMerge>
        </filter>
        <linearGradient x1="0.757156098%" y1="49.8913565%" x2="100.421403%" y2="49.8913565%" id="linearGradient-4">
            <stop stop-color="#E95906" offset="0.0395903716%"></stop>
            <stop stop-color="#B5007D" offset="100%"></stop>
        </linearGradient>
    </defs>
    <g id="Button-presentation" stroke="none" stroke-width="1" fill="none" fill-rule="evenodd">
        <g id="22-03_Chat-UI_Chat-Button_V1_s" transform="translate(-31.000000, -219.000000)">
            <g id="Group" transform="translate(41.000000, 228.000000)">
                <g id="22-03_chat-button_spektrum2_square-copy-2">
                    <mask id="mask-2" fill="white">
                        <use xlink:href="#path-1"></use>
                    </mask>
                    <g id="Surface-Elevation">
                        <use fill="black" fill-opacity="1" filter="url(#filter-3)" xlink:href="#path-1"></use>
                        <use fill="#FFFFFF" fill-rule="evenodd" xlink:href="#path-1"></use>
                    </g>
                    <g id="Surface-Color" mask="url(#mask-2)" fill="url(#linearGradient-4)">
                        <polygon id="color" points="0 0 56 0 56 56 0 56"></polygon>
                    </g>
                    <g id="Chat-Icon" mask="url(#mask-2)">
                        <g transform="translate(16.000000, 9.000000)">
                            <path d="M18,6.07914871 L18,2.73044181 C18,1.22279095 16.8590827,0 15.4523786,0 L2.54762131,0 C1.14006267,0 0,1.22279095 0,2.73044181 L0,9.37289871 C0,10.8814655 1.14006267,12.1042565 2.54762131,12.1042565 L3.21678853,12.1042565 L3.21678853,16.2095367 L3.22448011,16.2132004 C3.23046245,16.6482758 3.55949102,17 3.96714462,17 C4.18421802,17 4.37565283,16.8964978 4.51153736,16.7371228 L4.52264742,16.7417026 L6.55749691,14.5617457 L6.55749691,9.74294181 C6.55749691,7.71961207 8.08812079,6.07914871 9.9759757,6.07914871 L18,6.07914871 Z" id="Fill-157" stroke="none" fill="#FFFFFF" fill-rule="nonzero"></path>
                            <path d="M23.1566909,9 C23.6619587,9 24.1180113,9.19504516 24.4487724,9.50596692 C24.7908611,9.82753702 25,10.272379 25,10.7624553 L25,10.7624553 L25,16.8691931 C25,17.2413031 24.8758815,17.5853383 24.665272,17.8788635 L24.665272,17.8788635 L21.6073072,23 L16.7296971,18.6316484 L9.84330912,18.6316484 C9.33782405,18.6316484 8.88179123,18.4367452 8.55110766,18.1258962 C8.20898784,17.8042969 8,17.3593534 8,16.8691931 L8,16.8691931 L8,10.7624553 C8,10.2722951 8.20898784,9.82735149 8.55110766,9.5057522 C8.88179123,9.19490321 9.33782405,9 9.84330912,9 L9.84330912,9 L23.1566909,9 Z" id="Fill-159" stroke="#FFFFFF" stroke-width="1.5" fill="none"></path>
                        </g>
                    </g>
                </g>
                <g id="Chat" transform="translate(14.249512, 37.477539)" fill="#FFFFFF" fill-rule="nonzero">
                    <path d="M0,5.01757812 C0,4.36588542 0.112792969,3.75406901 0.338378906,3.18212891 C0.563964844,2.6101888 0.875,2.11458333 1.27148438,1.6953125 C1.66796875,1.27604167 2.13623047,0.947916667 2.67626953,0.7109375 C3.21630859,0.473958333 3.80533854,0.35546875 4.44335938,0.35546875 C4.91731771,0.35546875 5.37076823,0.40218099 5.80371094,0.495605469 C6.23665365,0.589029948 6.64908854,0.713216146 7.04101562,0.868164062 C7.05013021,0.931966146 7.05810547,0.990071615 7.06494141,1.04248047 C7.07177734,1.09488932 7.07519531,1.1484375 7.07519531,1.203125 C7.07519531,1.50390625 7.00911458,1.73860677 6.87695312,1.90722656 C6.74479167,2.07584635 6.58072917,2.16015625 6.38476562,2.16015625 C6.29361979,2.16015625 6.19222005,2.14078776 6.08056641,2.10205078 C5.96891276,2.0633138 5.84016927,2.02115885 5.69433594,1.97558594 C5.5485026,1.93001302 5.37760417,1.8889974 5.18164062,1.85253906 C4.98567708,1.81608073 4.7578125,1.79785156 4.49804688,1.79785156 C4.09700521,1.79785156 3.72330729,1.8741862 3.37695312,2.02685547 C3.03059896,2.17952474 2.72867839,2.39599609 2.47119141,2.67626953 C2.21370443,2.95654297 2.01318359,3.29492188 1.86962891,3.69140625 C1.72607422,4.08789062 1.65429688,4.52994792 1.65429688,5.01757812 C1.65429688,5.5234375 1.72607422,5.97347005 1.86962891,6.36767578 C2.01318359,6.76188151 2.21370443,7.09684245 2.47119141,7.37255859 C2.72867839,7.64827474 3.03059896,7.85563151 3.37695312,7.99462891 C3.72330729,8.1336263 4.09700521,8.203125 4.49804688,8.203125 C4.7578125,8.203125 4.98339844,8.18489583 5.17480469,8.1484375 C5.36621094,8.11197917 5.53141276,8.07096354 5.67041016,8.02539062 C5.80940755,7.97981771 5.9313151,7.93766276 6.03613281,7.89892578 C6.14095052,7.8601888 6.24348958,7.84082031 6.34375,7.84082031 C6.57617188,7.84082031 6.76302083,7.91829427 6.90429688,8.07324219 C7.04557292,8.2281901 7.11621094,8.45377604 7.11621094,8.75 C7.11621094,8.81380208 7.11621094,8.8741862 7.11621094,8.93115234 C7.11621094,8.98811849 7.10709635,9.05533854 7.08886719,9.1328125 C6.6969401,9.30143229 6.29134115,9.42903646 5.87207031,9.515625 C5.45279948,9.60221354 4.9765625,9.64550781 4.44335938,9.64550781 C3.80989583,9.64550781 3.22200521,9.53157552 2.6796875,9.30371094 C2.13736979,9.07584635 1.66796875,8.75683594 1.27148438,8.34667969 C0.875,7.93652344 0.563964844,7.44661458 0.338378906,6.87695312 C0.112792969,6.30729167 0,5.6875 0,5.01757812 Z" id="Path"></path>
                    <path d="M8.17578125,9.53613281 L8.17578125,0.649414062 C8.17578125,0.462565104 8.22932943,0.307617188 8.33642578,0.184570312 C8.44352214,0.0615234375 8.64518229,0 8.94140625,0 C9.08268229,0 9.22623698,0.00797526042 9.37207031,0.0239257812 C9.51790365,0.0398763021 9.62727865,0.0569661458 9.70019531,0.0751953125 L9.70019531,3.75292969 C9.9235026,3.44303385 10.2174479,3.17871094 10.5820312,2.95996094 C10.9466146,2.74121094 11.3795573,2.63183594 11.8808594,2.63183594 C12.218099,2.63183594 12.5336914,2.68880208 12.8276367,2.80273438 C13.121582,2.91666667 13.3813477,3.08984375 13.6069336,3.32226562 C13.8325195,3.5546875 14.0102539,3.8531901 14.1401367,4.21777344 C14.2700195,4.58235677 14.3349609,5.01529948 14.3349609,5.51660156 L14.3349609,8.96191406 C14.3349609,9.14876302 14.2791341,9.30257161 14.1674805,9.42333984 C14.0558268,9.54410807 13.8496094,9.60449219 13.5488281,9.60449219 C13.4075521,9.60449219 13.2674154,9.59765625 13.128418,9.58398438 C12.9894206,9.5703125 12.8834635,9.55436198 12.8105469,9.53613281 L12.8105469,5.6875 C12.8105469,5.09049479 12.6795247,4.64957682 12.4174805,4.36474609 C12.1554362,4.07991536 11.7851562,3.9375 11.3066406,3.9375 C10.9785156,3.9375 10.6640625,4.02408854 10.3632812,4.19726562 C10.0625,4.37044271 9.84147135,4.59147135 9.70019531,4.86035156 L9.70019531,8.96191406 C9.70019531,9.14876302 9.64664714,9.30257161 9.53955078,9.42333984 C9.43245443,9.54410807 9.22851562,9.60449219 8.92773438,9.60449219 C8.78645833,9.60449219 8.64404297,9.59765625 8.50048828,9.58398438 C8.35693359,9.5703125 8.24869792,9.55436198 8.17578125,9.53613281 Z" id="Path"></path>
                    <path d="M15.421875,7.58789062 C15.421875,7.25065104 15.4811198,6.94303385 15.5996094,6.66503906 C15.718099,6.38704427 15.898112,6.14778646 16.1396484,5.94726562 C16.3811849,5.74674479 16.6865234,5.59065755 17.0556641,5.47900391 C17.4248047,5.36735026 17.866862,5.31152344 18.3818359,5.31152344 C18.8649089,5.31152344 19.4140625,5.36621094 20.0292969,5.47558594 L20.0292969,5.12695312 C20.0292969,4.67122396 19.9267578,4.34765625 19.7216797,4.15625 C19.5166016,3.96484375 19.1474609,3.86914062 18.6142578,3.86914062 C18.3453776,3.86914062 18.1083984,3.88509115 17.9033203,3.91699219 C17.6982422,3.94889323 17.5136719,3.98535156 17.3496094,4.02636719 C17.1855469,4.06738281 17.0408529,4.10498047 16.9155273,4.13916016 C16.7902018,4.17333984 16.6705729,4.19042969 16.5566406,4.19042969 C16.3606771,4.19042969 16.2159831,4.10611979 16.1225586,3.9375 C16.0291341,3.76888021 15.9824219,3.56380208 15.9824219,3.32226562 C15.9824219,3.27669271 15.9824219,3.23225911 15.9824219,3.18896484 C15.9824219,3.14567057 15.9869792,3.10123698 15.9960938,3.05566406 C16.3059896,2.95084635 16.6899414,2.85400391 17.1479492,2.76513672 C17.605957,2.67626953 18.1152344,2.63183594 18.6757812,2.63183594 C19.218099,2.63183594 19.6681315,2.69335938 20.0258789,2.81640625 C20.3836263,2.93945312 20.671875,3.11946615 20.890625,3.35644531 C21.109375,3.59342448 21.2631836,3.8828125 21.3520508,4.22460938 C21.440918,4.56640625 21.4853516,4.96061198 21.4853516,5.40722656 L21.4853516,6.87695312 C21.4853516,7.15494792 21.4876302,7.40673828 21.4921875,7.63232422 C21.4967448,7.85791016 21.5104167,8.0686849 21.5332031,8.26464844 C21.5559896,8.46061198 21.5867513,8.65429688 21.6254883,8.84570312 C21.6642253,9.03710938 21.7154948,9.24446615 21.7792969,9.46777344 C21.6972656,9.50423177 21.5924479,9.53613281 21.4648438,9.56347656 C21.3372396,9.59082031 21.1914062,9.60449219 21.0273438,9.60449219 C20.8404948,9.60449219 20.6878255,9.5703125 20.5693359,9.50195312 C20.4508464,9.43359375 20.3597005,9.34016927 20.2958984,9.22167969 C20.2320964,9.1031901 20.1888021,8.96533203 20.1660156,8.80810547 C20.1432292,8.65087891 20.125,8.48339844 20.1113281,8.30566406 L20.0976562,8.30566406 C19.983724,8.48339844 19.8549805,8.65315755 19.7114258,8.81494141 C19.5678711,8.97672526 19.398112,9.11914062 19.2021484,9.2421875 C19.0061849,9.36523438 18.7851562,9.4609375 18.5390625,9.52929688 C18.2929688,9.59765625 18.0104167,9.63183594 17.6914062,9.63183594 C17.3268229,9.63183594 17.0021159,9.57828776 16.7172852,9.47119141 C16.4324544,9.36409505 16.1943359,9.2171224 16.0029297,9.03027344 C15.8115234,8.84342448 15.6668294,8.62695312 15.5688477,8.38085938 C15.4708659,8.13476562 15.421875,7.87044271 15.421875,7.58789062 Z M16.9394531,7.47851562 C16.9394531,7.77929688 17.0465495,8.00830078 17.2607422,8.16552734 C17.4749349,8.32275391 17.7552083,8.40136719 18.1015625,8.40136719 C18.5481771,8.40136719 18.9366862,8.27034505 19.2670898,8.00830078 C19.5974935,7.74625651 19.8561198,7.41927083 20.0429688,7.02734375 L20.0429688,6.43945312 C19.5690104,6.35742188 19.1451823,6.31640625 18.7714844,6.31640625 C18.15625,6.31640625 17.6971029,6.41666667 17.394043,6.6171875 C17.0909831,6.81770833 16.9394531,7.10481771 16.9394531,7.47851562 Z" id="Shape"></path>
                    <path d="M22.2919922,3.390625 C22.2919922,3.15820312 22.3409831,2.99527995 22.4389648,2.90185547 C22.5369466,2.80843099 22.6611328,2.76171875 22.8115234,2.76171875 L23.4130859,2.76171875 L23.4130859,1.79785156 C23.4130859,1.68391927 23.4244792,1.57568359 23.4472656,1.47314453 C23.4700521,1.37060547 23.512207,1.27718099 23.5737305,1.19287109 C23.6352539,1.1085612 23.7241211,1.04361979 23.840332,0.998046875 C23.956543,0.952473958 24.1126302,0.9296875 24.3085938,0.9296875 C24.531901,0.9296875 24.7324219,0.961588542 24.9101562,1.02539062 L24.9101562,2.76171875 L27.2070312,2.76171875 C27.2526042,2.90299479 27.2753906,3.08984375 27.2753906,3.32226562 C27.2753906,3.5546875 27.2263997,3.71761068 27.128418,3.81103516 C27.0304362,3.90445964 26.9085286,3.95117188 26.7626953,3.95117188 L24.9101562,3.95117188 L24.9101562,7.21191406 C24.9101562,7.56738281 24.9944661,7.84309896 25.1630859,8.0390625 C25.3317057,8.23502604 25.5800781,8.33300781 25.9082031,8.33300781 C26.0494792,8.33300781 26.1748047,8.31933594 26.2841797,8.29199219 C26.3935547,8.26464844 26.4926758,8.23160807 26.581543,8.19287109 C26.6704102,8.15413411 26.7547201,8.12109375 26.8344727,8.09375 C26.9142253,8.06640625 26.9928385,8.05273438 27.0703125,8.05273438 C27.2480469,8.05273438 27.3881836,8.11311849 27.4907227,8.23388672 C27.5932617,8.35465495 27.6445312,8.54720052 27.6445312,8.81152344 C27.6445312,8.85709635 27.6445312,8.90494792 27.6445312,8.95507812 C27.6445312,9.00520833 27.6376953,9.05533854 27.6240234,9.10546875 C27.3551432,9.26497396 27.0691732,9.39029948 26.7661133,9.48144531 C26.4630534,9.57259115 26.1110026,9.61816406 25.7099609,9.61816406 C25.3453776,9.61816406 25.0206706,9.56005859 24.7358398,9.44384766 C24.4510091,9.32763672 24.210612,9.16471354 24.0146484,8.95507812 C23.8186849,8.74544271 23.6694336,8.49820964 23.5668945,8.21337891 C23.4643555,7.92854818 23.4130859,7.61295573 23.4130859,7.26660156 L23.4130859,3.95117188 L22.3466797,3.95117188 C22.3284505,3.88736979 22.3147786,3.80419922 22.3056641,3.70166016 C22.2965495,3.59912109 22.2919922,3.49544271 22.2919922,3.390625 Z" id="Path"></path>
                </g>
            </g>
        </g>
    </g>
</svg>